<svg version="1.1"
    xmlns="http://www.w3.org/2000/svg" viewBox="0 0 515.8748430974267 293.5546706012701" width="515.8748430974267" height="293.5546706012701">
    <!-- svg-source:excalidraw -->

    <defs>
        <style class="style-fonts">
      @font-face {
        font-family: "Virgil";
        src: url("https://excalidraw.com/Virgil.woff2");
      }
      @font-face {
        font-family: "Cascadia";
        src: url("https://excalidraw.com/Cascadia.woff2");
      }
      @font-face {
        font-family: "Assistant";
        src: url("https://excalidraw.com/Assistant-Regular.woff2");
      }
        </style>

    </defs>
    <rect x="0" y="0" width="515.8748430974267" height="293.5546706012701" fill="#ffffff"></rect>
    <g stroke-linecap="round" transform="translate(10 158.8869741339713) rotate(0 66.99996948242188 31.333328247070312)">
        <path d="M15.67 0 C35.75 -3.21, 53.13 -0.72, 118.33 0 C131.51 5.49, 134.34 10.41, 134 15.67 C130.18 28.54, 132.22 39.67, 134 47 C129.69 58.99, 123.53 66.57, 118.33 62.67 C78.33 63.95, 43.05 57.29, 15.67 62.67 C9.51 66.89, -0.71 57.08, 0 47 C4.88 38.26, -4.84 27.73, 0 15.67 C4.03 7.47, 9.3 5.29, 15.67 0" stroke="none" stroke-width="0" fill="#ffec99"></path>
        <path d="M15.67 0 C44.02 0.24, 74.33 -0.09, 118.33 0 M15.67 0 C37.15 1.25, 57.92 1.29, 118.33 0 M118.33 0 C132.23 -3.74, 134.69 6.15, 134 15.67 M118.33 0 C124.77 2.64, 129.52 9.73, 134 15.67 M134 15.67 C137.01 24.47, 131.33 30.15, 134 47 M134 15.67 C132.96 29.45, 134.77 39.21, 134 47 M134 47 C131.52 59.69, 126.6 60.53, 118.33 62.67 M134 47 C138.19 56.77, 132.15 66.06, 118.33 62.67 M118.33 62.67 C92.22 58.82, 63.51 63.95, 15.67 62.67 M118.33 62.67 C98.47 61.39, 73.44 61.66, 15.67 62.67 M15.67 62.67 C5.06 63.51, 1.24 56.62, 0 47 M15.67 62.67 C1.23 64.58, -1.65 53.72, 0 47 M0 47 C4.1 38.54, -1.15 33.33, 0 15.67 M0 47 C-0.75 36.92, 0.47 27.4, 0 15.67 M0 15.67 C-1.68 5.21, 8.75 0.95, 15.67 0 M0 15.67 C-0.26 9.76, 4.05 1.91, 15.67 0" stroke="#f08c00" stroke-width="2" fill="none"></path>
    </g>
    <g transform="translate(36.30198669433594 172.72030238104162) rotate(0 40.69798278808594 17.5)">
        <text x="40.69798278808594" y="24.528" font-family="Virgil, Segoe UI Emoji" font-size="28px" fill="#f08c00" text-anchor="middle" style="white-space: pre;" direction="ltr" dominant-baseline="alphabetic">device</text>
    </g>
    <g stroke-linecap="round" transform="translate(12.186549546603146 83.71205229560474) rotate(0 64.98152509065073 29.055577999992693)">
        <path d="M14.53 0 C48.1 -1.65, 75.07 3.21, 115.44 0 C123.32 -0.49, 130.5 10.06, 129.96 14.53 C128.86 23.57, 133.68 30.77, 129.96 43.58 C131.02 52, 120.54 54.03, 115.44 58.11 C94.92 63.4, 61.75 63.53, 14.53 58.11 C7.42 63.32, -1.86 57.23, 0 43.58 C-2.43 38.47, 4.63 34.1, 0 14.53 C2.59 8.58, 1.3 0.49, 14.53 0" stroke="none" stroke-width="0" fill="#b2f2bb"></path>
        <path d="M14.53 0 C37.21 -3.78, 61.76 -2.49, 115.44 0 M14.53 0 C39.39 0.42, 67.08 -1.81, 115.44 0 M115.44 0 C122.94 -0.19, 129.56 8.82, 129.96 14.53 M115.44 0 C121.07 -2.56, 134 6.37, 129.96 14.53 M129.96 14.53 C125.95 20.74, 132.31 27.68, 129.96 43.58 M129.96 14.53 C128.91 26.86, 129.57 35.72, 129.96 43.58 M129.96 43.58 C132.03 52.12, 125.41 55.85, 115.44 58.11 M129.96 43.58 C132.84 49.83, 124.62 58.47, 115.44 58.11 M115.44 58.11 C87.89 58.07, 60.82 59.55, 14.53 58.11 M115.44 58.11 C93.09 57.23, 75.52 56.85, 14.53 58.11 M14.53 58.11 C3.83 57.25, -3.65 51.62, 0 43.58 M14.53 58.11 C3.72 61.22, -0.23 52.39, 0 43.58 M0 43.58 C3.65 28.71, 0.13 18.67, 0 14.53 M0 43.58 C-0.98 35.81, -2 25.43, 0 14.53 M0 14.53 C0.71 4.73, 2.4 0.18, 14.53 0 M0 14.53 C-3.62 3.71, 4.18 3.08, 14.53 0" stroke="#2f9e44" stroke-width="2" fill="none"></path>
    </g>
    <g transform="translate(39.11609557231236 95.26763029559697) rotate(0 38.051979064941406 17.5)">
        <text x="38.051979064941406" y="24.528" font-family="Virgil, Segoe UI Emoji" font-size="28px" fill="#2f9e44" text-anchor="middle" style="white-space: pre;" direction="ltr" dominant-baseline="alphabetic">driver</text>
    </g>
    <g stroke-linecap="round" transform="translate(12.876078385427718 10) rotate(0 242.9103306881351 30.666671752929688)">
        <path d="M15.33 0 C195.3 0.94, 378.56 -2.32, 470.49 0 C481.67 3.75, 488.66 -0.08, 485.82 15.33 C482.97 30.49, 489.03 41.3, 485.82 46 C481.78 61.65, 480.13 64.35, 470.49 61.33 C343.34 56.64, 214.7 60.84, 15.33 61.33 C9.23 62.43, 3.86 51.12, 0 46 C-0.55 42.66, 3.19 34.33, 0 15.33 C4.21 8.42, 8.69 3.93, 15.33 0" stroke="none" stroke-width="0" fill="#ffc9c9"></path>
        <path d="M15.33 0 C106.57 -2, 199.81 -2.74, 470.49 0 M15.33 0 C182.02 -1.94, 350.98 -0.9, 470.49 0 M470.49 0 C482.56 1.45, 483.82 3.17, 485.82 15.33 M470.49 0 C483.07 0.53, 481.51 9.28, 485.82 15.33 M485.82 15.33 C484.46 27.28, 481.99 38.05, 485.82 46 M485.82 15.33 C487.62 22.88, 488.07 34.29, 485.82 46 M485.82 46 C488.39 53.8, 483.08 60.72, 470.49 61.33 M485.82 46 C488.74 56.62, 483.11 57.13, 470.49 61.33 M470.49 61.33 C353.02 59.92, 233.27 59.3, 15.33 61.33 M470.49 61.33 C371.21 64, 273.54 63.62, 15.33 61.33 M15.33 61.33 C4.24 59.24, 3.75 54.83, 0 46 M15.33 61.33 C6.22 62.04, -1.82 54.93, 0 46 M0 46 C-2.39 39.13, 0.08 34.49, 0 15.33 M0 46 C-2.12 39.86, -0.65 32.33, 0 15.33 M0 15.33 C2.26 1.2, 4.41 3.13, 15.33 0 M0 15.33 C-0.55 2.62, 4.07 0.35, 15.33 0" stroke="#e03131" stroke-width="2" fill="none"></path>
    </g>
    <g transform="translate(232.64442604133637 23.166671752929688) rotate(0 23.141983032226562 17.5)">
        <text x="23.141983032226562" y="24.528" font-family="Virgil, Segoe UI Emoji" font-size="28px" fill="#e03131" text-anchor="middle" style="white-space: pre;" direction="ltr" dominant-baseline="alphabetic">app</text>
    </g>
    <g stroke-linecap="round" transform="translate(159.62749242536302 157.23032086681997) rotate(0 171.75420424207607 30.879280542397737)">
        <path d="M15.44 0 C96.26 5.03, 180.74 4.41, 328.07 0 C340.09 -1.54, 344.46 6.75, 343.51 15.44 C348.22 28.42, 337.42 36.74, 343.51 46.32 C344.01 61.83, 336.36 62.94, 328.07 61.76 C235.58 62.39, 147.09 67.96, 15.44 61.76 C9.85 62.14, -2.79 54.87, 0 46.32 C-0.59 36.94, 4.14 28.94, 0 15.44 C4.25 10.42, 5.84 0.76, 15.44 0" stroke="none" stroke-width="0" fill="#ffec99"></path>
        <path d="M15.44 0 C113.62 3.16, 212.24 1.83, 328.07 0 M15.44 0 C105.38 1.67, 195.1 1.13, 328.07 0 M328.07 0 C339.8 -0.82, 342.38 1.65, 343.51 15.44 M328.07 0 C338.94 -0.2, 342.55 1.81, 343.51 15.44 M343.51 15.44 C341.32 24.04, 345.52 26.46, 343.51 46.32 M343.51 15.44 C344.06 28.61, 343.14 38.77, 343.51 46.32 M343.51 46.32 C339.86 57.04, 336.68 59.46, 328.07 61.76 M343.51 46.32 C339.24 59.7, 339.7 57.83, 328.07 61.76 M328.07 61.76 C234.21 62.64, 142.51 63.28, 15.44 61.76 M328.07 61.76 C208.33 64.82, 89.85 62.51, 15.44 61.76 M15.44 61.76 C6.35 65.02, 2.37 59.36, 0 46.32 M15.44 61.76 C5.77 62.77, 3.22 52.06, 0 46.32 M0 46.32 C3.72 38.62, -2.15 27.57, 0 15.44 M0 46.32 C0.99 33.57, 1.21 24.42, 0 15.44 M0 15.44 C-2.88 1.92, 3.2 -0.37, 15.44 0 M0 15.44 C1.79 5.12, 6.3 1.36, 15.44 0" stroke="#f08c00" stroke-width="2" fill="none"></path>
    </g>
    <g transform="translate(184.46970789067927 171.1931170033804) rotate(0 81.03196716308594 17.5)">
        <text x="0" y="24.528" font-family="Virgil, Segoe UI Emoji" font-size="28px" fill="#f08c00" text-anchor="start" style="white-space: pre;" direction="ltr" dominant-baseline="alphabetic">STM32-HAL</text>
    </g>
    <g stroke-linecap="round" transform="translate(10.928091775321263 229.64418070487864) rotate(0 247.47337566105273 26.95524494819574)">
        <path d="M13.48 0 C120.75 3.93, 232.8 4.19, 481.47 0 C492.66 3.88, 492.8 -0.83, 494.95 13.48 C494.64 22.56, 497.68 34.3, 494.95 40.43 C490.29 46.49, 487.82 56.52, 481.47 53.91 C309.72 56.51, 141.82 57.29, 13.48 53.91 C3.04 49.84, 1.59 45.49, 0 40.43 C3.82 25.72, -0.4 17.82, 0 13.48 C-3.16 3.43, 2.68 -3.71, 13.48 0" stroke="none" stroke-width="0" fill="#a5d8ff"></path>
        <path d="M13.48 0 C107.48 -1.26, 200.08 -0.14, 481.47 0 M13.48 0 C113.18 2.13, 214.74 3.48, 481.47 0 M481.47 0 C486.56 -3.09, 493.01 7.87, 494.95 13.48 M481.47 0 C489.39 -0.3, 492.29 4.42, 494.95 13.48 M494.95 13.48 C495.95 19.12, 495.26 24.78, 494.95 40.43 M494.95 13.48 C496.71 23.35, 494.6 32.64, 494.95 40.43 M494.95 40.43 C492.31 52.45, 488.87 56, 481.47 53.91 M494.95 40.43 C495.4 49.97, 490.58 57.42, 481.47 53.91 M481.47 53.91 C343.09 52.81, 203.04 53.72, 13.48 53.91 M481.47 53.91 C337.39 57.49, 193.82 57.74, 13.48 53.91 M13.48 53.91 C6.65 53.21, -2.07 47.33, 0 40.43 M13.48 53.91 C8.64 56.91, 4.02 49.24, 0 40.43 M0 40.43 C-3.31 28.45, -0.99 20.38, 0 13.48 M0 40.43 C-1.19 33.55, 1.22 23.46, 0 13.48 M0 13.48 C2.49 7.57, 7.81 -2.35, 13.48 0 M0 13.48 C-0.16 0.58, 5.84 -1.46, 13.48 0" stroke="#1971c2" stroke-width="2" fill="none"></path>
    </g>
    <g transform="translate(220.02748977524107 239.09942565307483) rotate(0 38.37397766113281 17.5)">
        <text x="38.37397766113281" y="24.528" font-family="Virgil, Segoe UI Emoji" font-size="28px" fill="#1971c2" text-anchor="middle" style="white-space: pre;" direction="ltr" dominant-baseline="alphabetic">kernel</text>
    </g>
    <g stroke-linecap="round" transform="translate(162.68451758865922 86.83940960133623) rotate(0 169.37614267541665 31.333343505859375)">
        <path d="M15.67 0 C109.45 -8.13, 210.13 -4.2, 323.09 0 C337.55 -3.75, 336.92 3.7, 338.75 15.67 C333.35 29.45, 344.03 33.58, 338.75 47 C342.35 58.31, 338.41 60.68, 323.09 62.67 C251.18 64.89, 176.63 64.3, 15.67 62.67 C9.45 59.17, -3.03 59.9, 0 47 C-5.32 34.61, -2.69 24.74, 0 15.67 C0.61 5.84, 5.44 -2.34, 15.67 0" stroke="none" stroke-width="0" fill="#b2f2bb"></path>
        <path d="M15.67 0 C101.02 -3.86, 185.33 -3.32, 323.09 0 M15.67 0 C76.68 -4.54, 139.97 -4.9, 323.09 0 M323.09 0 C332.04 0.11, 338.77 1.3, 338.75 15.67 M323.09 0 C330.34 4.07, 342.26 1.91, 338.75 15.67 M338.75 15.67 C341.24 22.68, 340.41 40.01, 338.75 47 M338.75 15.67 C340.69 27.43, 340.14 35.08, 338.75 47 M338.75 47 C338.82 58.74, 333.57 60.6, 323.09 62.67 M338.75 47 C334.32 53.95, 334.3 65.58, 323.09 62.67 M323.09 62.67 C222.15 58.95, 119.44 61.38, 15.67 62.67 M323.09 62.67 C234.35 59.33, 144.88 57.7, 15.67 62.67 M15.67 62.67 C8.26 62.59, 0.76 56.31, 0 47 M15.67 62.67 C2.76 60.31, -3.76 52.93, 0 47 M0 47 C-1.15 33.49, -2.1 26.71, 0 15.67 M0 47 C-1.58 36.97, 0.21 28.41, 0 15.67 M0 15.67 C2.9 5.52, 4.84 -0.85, 15.67 0 M0 15.67 C4.58 1.15, 4.36 -0.98, 15.67 0" stroke="#2f9e44" stroke-width="2" fill="none"></path>
    </g>
    <g transform="translate(199.43680293949274 99.50609661305498) rotate(0 19.305992126464844 17.5)">
        <text x="0" y="24.528" font-family="Virgil, Segoe UI Emoji" font-size="28px" fill="#2f9e44" text-anchor="start" style="white-space: pre;" direction="ltr" dominant-baseline="alphabetic">led</text>
    </g>
    <g transform="translate(360.770115927774 99.50609661305498) rotate(0 18.675994873046875 17.5)">
        <text x="0" y="24.528" font-family="Virgil, Segoe UI Emoji" font-size="28px" fill="#2f9e44" text-anchor="start" style="white-space: pre;" direction="ltr" dominant-baseline="alphabetic">lcd</text>
    </g>
    <g transform="translate(260.58746822269586 99.50609661305498) rotate(0 38.821983337402344 17.5)">
        <text x="0" y="24.528" font-family="Virgil, Segoe UI Emoji" font-size="28px" fill="#2f9e44" text-anchor="start" style="white-space: pre;" direction="ltr" dominant-baseline="alphabetic">usart</text>
    </g>
</svg>